# xmcd
#
# Track frame offsets:
#	150
#	19429
#	34700
#	52008
#	71970
#	87735
#	105493
#	123446
#	145647
#	168100
#
# Disc length: 2601 seconds
# Revision: 0
# Processed by: cddbd v1.5.2PL0 Copyright (c) Steve Scherf et al.
# Submitted via: dBpowerAMP V12.0
#
DISCID=8b0a270a
DTITLE=Mama Kin - The Magician's Daughter
DYEAR=2012
DGENRE=Blues Female
TTITLE0=Rescue
TTITLE1=One Too Many
TTITLE2=Red Wood River
TTITLE3=Bosom Of Our Bed
TTITLE4=Was It Worth It
TTITLE5=Give Me A Reason
TTITLE6=The Fire
TTITLE7=The River As She Runs
TTITLE8=Cherokee Boy
TTITLE9=I'll Be Ready
EXTD=
EXTT0=
EXTT1=
EXTT2=
EXTT3=
EXTT4=
EXTT5=
EXTT6=
EXTT7=
EXTT8=
EXTT9=
PLAYORDER=
